<svg width="128.000000" height="128.000000" viewBox="8 -10 110 90" fill="none" xmlns="http://www.w3.org/2000/svg"
     xmlns:xlink="http://www.w3.org/1999/xlink">
    <ellipse id="ellipse" rx="5.380167" ry="5.880180"
             transform="matrix(0.98317 -0.182694 0.182694 0.98317 40.4622 16.6482)" fill="#F19534"
             fill-opacity="1.000000"/>
    <ellipse id="ellipse" rx="5.880178" ry="5.810178"
             transform="matrix(0.182694 -0.98317 0.98317 0.182694 87.1278 16.7185)" fill="#F19534"
             fill-opacity="1.000000"/>
    <path id="path"
          d="M38.87 18.15C38.58 15.17 40.21 14.59 40.53 14.36C41.37 13.75 41.42 13.08 40.99 12.59C40.47 11.99 39.39 12.33 39.04 12.47C37.48 13.11 36 15.46 37.09 18.53C37.2 18.81 37.59 19.59 38.37 19.31C38.96 19.09 38.89 18.42 38.87 18.15Z"
          fill="#FFCA28" fill-opacity="1.000000" fill-rule="nonzero"/>
    <path id="path"
          d="M84.62 17.61C85.28 14.87 87.01 14.88 87.58 14.77C88.82 14.54 89.14 14.13 89.05 13.48C88.89 12.29 87.51 12.27 86.64 12.45C85.33 12.73 82.96 13.74 82.86 17.1C82.76 17.37 82.86 18.48 83.7 18.57C84.45 18.65 84.58 17.79 84.62 17.61Z"
          fill="#FFCA28" fill-opacity="1.000000" fill-rule="nonzero"/>
    <path id="path"
          d="M36.41 32.2L39.09 39.5L88 39.5L91.6 32.57C87.52 28.43 88.04 20.72 88.04 20.72L84.58 19.33C84.58 19.33 79.94 29.83 62.91 29.83C45.87 29.83 43.09 19.33 43.09 19.33L39.21 20.72C39.2 20.72 40.84 27.89 36.41 32.2Z"
          fill="#F19534" fill-opacity="1.000000" fill-rule="nonzero"/>
    <path id="path"
          d="M112.54 14.06C109.91 13.56 107.31 15.74 106.73 18.94C106.41 20.68 106.77 22.35 107.58 23.61C104.69 25.74 95.49 31.48 83.82 28.45C72.15 25.41 68.64 19.54 67.48 14.48C69.15 13.44 70.27 11.59 70.27 9.47C70.27 6.22 67.64 3.59 64.39 3.59C61.14 3.59 58.51 6.22 58.51 9.47C58.51 11.59 59.63 13.44 61.3 14.48C60.15 19.46 56.71 25.06 44.96 28.45C33.35 31.8 24.09 25.83 21.19 23.63C22 22.38 22.36 20.69 22.04 18.95C21.46 15.75 18.86 13.57 16.23 14.07C13.6 14.57 11.93 17.57 12.51 20.76C12.96 23.24 14.63 25.11 16.59 25.58L21.37 53.93C21.01 54.04 19.82 54.58 20.31 57.14L20.7 59.05C21.9 58.95 41.75 57.23 64.39 57.23C87.03 57.23 106.87 58.95 108.08 59.05L108.47 57.14C108.95 54.58 107.77 54.04 107.41 53.93L112.19 25.58C114.15 25.1 115.82 23.24 116.27 20.76C116.84 17.56 115.17 14.56 112.54 14.06Z"
          fill="#FFCA28" fill-opacity="1.000000" fill-rule="nonzero"/>
    <ellipse id="ellipse" cx="64.000000" cy="39.500000" rx="5.989998" ry="7.419998" fill="#FF6F00"
             fill-opacity="1.000000"/>
    <path id="path"
          d="M64 33.91C64.24 34.18 64.42 35.09 63.79 35.79C62.72 36.96 61.3 37.97 60.86 38.23C60.42 38.5 60.01 38.3 59.87 38.18C59.22 37.65 59.47 36.43 59.89 35.7C60.79 34.08 62.69 32.43 64 33.91Z"
          fill="#FFAB00" fill-opacity="1.000000" fill-rule="nonzero"/>
    <path id="path"
          d="M63.56 42.27C62.89 42.61 60.52 43.43 61.4 44.86C61.86 45.61 63.68 46.44 65.89 45.31C69.37 43.53 69.43 38.5 68.76 38.14C68.07 37.75 67.48 38.63 67.05 39.5C66.29 40.98 65.01 41.53 63.56 42.27Z"
          fill="#E65100" fill-opacity="1.000000" fill-rule="nonzero"/>
    <path id="path"
          d="M103.82 44.07C104.35 40.84 105.86 38.37 107.77 38.71C110.36 39.16 111.27 42.07 110.73 45.29C110.2 48.51 108.45 50.73 105.84 50.36C104.2 50.13 103.29 47.29 103.82 44.07Z"
          fill="#FF6F00" fill-opacity="1.000000" fill-rule="nonzero"/>
    <path id="path"
          d="M108.5 40.49C108.74 40.65 109 40.98 108.86 41.81C108.72 42.64 107.17 44.14 106.89 44.44C106.61 44.74 106.36 44.71 106.24 44.65C105.63 44.38 105.56 43.39 105.73 42.73C106.07 41.3 107.18 39.63 108.5 40.49Z"
          fill="#FFAB00" fill-opacity="1.000000" fill-rule="nonzero"/>
    <path id="path"
          d="M24.18 43.45C23.65 40.23 22.14 37.75 20.23 38.09C17.64 38.55 16.73 41.45 17.27 44.67C17.79 47.89 19.54 50.11 22.16 49.74C23.8 49.51 24.71 46.67 24.18 43.45Z"
          fill="#FF6F00" fill-opacity="1.000000" fill-rule="nonzero"/>
    <path id="path"
          d="M19.29 40.09C20.21 39.59 21.04 40.3 20.63 41.23C20.01 42.65 19.93 43.45 19.87 44C19.37 44.56 19.64 44.74 19.32 44.8C18.79 44.89 18.43 44.3 18.32 43.62C18.1 42.16 18.36 40.59 19.29 40.09Z"
          fill="#FFAB00" fill-opacity="1.000000" fill-rule="nonzero"/>
    <ellipse id="ellipse" rx="3.940114" ry="4.540133"
             transform="matrix(0.969272 -0.245993 0.245993 0.969272 40.4751 41.248)" fill="#C62828"
             fill-opacity="1.000000"/>
    <path id="path"
          d="M39.87 38.02C40.14 38.12 40.47 38.38 40.54 39.23C40.61 40.08 39.62 41.85 39.41 42.2C39.22 42.56 38.8 42.65 38.66 42.63C38 42.5 37.7 41.55 37.7 40.86C37.7 39.38 38.38 37.48 39.87 38.02Z"
          fill="#F44336" fill-opacity="1.000000" fill-rule="nonzero"/>
    <ellipse id="ellipse" rx="4.540133" ry="3.940114"
             transform="matrix(0.245993 -0.969272 0.969272 0.245993 87.536 41.2547)" fill="#C62828"
             fill-opacity="1.000000"/>
    <path id="path"
          d="M87.85 38.28C88.09 38.43 88.34 38.79 88.19 39.62C88.04 40.46 86.46 41.94 86.17 42.23C85.88 42.52 85.64 42.49 85.51 42.43C84.9 42.14 84.85 41.14 85.03 40.48C85.41 39.05 86.55 37.38 87.85 38.28Z"
          fill="#F44336" fill-opacity="1.000000" fill-rule="nonzero"/>
    <path id="path"
          d="M64 55.3C40.18 55.3 20.12 57.17 19.92 57.19L20.31 59.1C20.51 59.08 40.27 57.3 64 57.3C87.73 57.3 107.48 59.08 107.69 59.1L108.08 57.19C107.87 57.17 87.82 55.3 64 55.3Z"
          fill="#E2A610" fill-opacity="1.000000" fill-rule="nonzero"/>
    <path id="path"
          d="M64 50.33C34.52 50.33 20.79 52.02 20.65 52.04L20.98 53.98C21.12 53.96 34.66 52.33 64 52.33C93.34 52.33 106.88 53.96 107.02 53.98L107.35 52.04C107.21 52.02 93.48 50.33 64 50.33Z"
          fill="#F19534" fill-opacity="1.000000" fill-rule="nonzero"/>
</svg>
